<svg aria-hidden="true" style="position: absolute; width: 0; height: 0; overflow: hidden;" version="1.1" xmlns="http://www.w3.org/2000/svg" xmlns:xlink="http://www.w3.org/1999/xlink">
<defs>

<symbol id="icon-x-button" viewBox="0 0 40 40">
<path d="M34.656 30.242l-10.25-10.289 10.273-10.156c0.422-0.422 0.422-1.109 0-1.531l-2.922-2.938c-0.203-0.203-0.477-0.313-0.766-0.313s-0.563 0.117-0.766 0.313l-10.227 10.125-10.242-10.117c-0.203-0.203-0.477-0.313-0.766-0.313s-0.563 0.117-0.766 0.313l-2.914 2.938c-0.422 0.422-0.422 1.109 0 1.531l10.273 10.156-10.242 10.281c-0.203 0.203-0.32 0.477-0.32 0.766s0.109 0.562 0.32 0.766l2.922 2.938c0.211 0.211 0.484 0.32 0.766 0.32 0.273 0 0.555-0.102 0.766-0.32l10.203-10.25 10.211 10.242c0.211 0.211 0.484 0.32 0.766 0.32 0.273 0 0.555-0.102 0.766-0.32l2.922-2.938c0.203-0.203 0.32-0.477 0.32-0.766-0.008-0.281-0.125-0.555-0.328-0.758z"></path>
</symbol>
 <symbol id="icon-logo" viewBox="0 0 32 32">
            <path fill="#fff" style="fill: var(--color1, #fff)"
                d="M28.13 18.563l-6.748-15.457-1.471-1.020-1.725-0.549-2.334-0.628-2.74 1.177-1.826 1.020 6.9 15.457h9.944z">
            </path>
            <path fill="#fff" style="fill: var(--color1, #fff)"
                d="M3.912 13.395l6.748 15.493 1.471 1.022 1.725 0.55 2.334 0.629 2.74-1.18 1.826-1.022-6.9-15.493h-9.944z">
            </path>
            <path fill="#fff" style="fill: var(--color2, #fff)"
                d="M10.924 3.309l-10.476 15.142 10.476 0.112 7.573-15.255c0.532-1.561 2.195-0.65 2.961 0-3.271-5.993-8.385-2.497-10.533 0z">
            </path>
            <path fill="#fff" style="fill: var(--color2, #fff)"
                d="M21.076 28.691l10.476-15.142-10.476-0.112-7.573 15.255c-0.532 1.56-2.195 0.65-2.961 0 3.271 5.992 8.385 2.497 10.533 0z">
            </path>
        </symbol>
        <symbol id="icon-x" viewBox="0 0 32 32">
            <path fill="currentcolor" stroke="#fff" style="stroke: var(--color2, #fff)" stroke-linejoin="round"
                stroke-linecap="round" stroke-miterlimit="4" stroke-width="1.7333" d="M24 8l-16 16"></path>
            <path fill="currentcolor" stroke="#fff" style="stroke: var(--color2, #fff)" stroke-linejoin="round"
                stroke-linecap="round" stroke-miterlimit="4" stroke-width="1.7333" d="M8 8l16 16"></path>
        </symbol>

        <symbol id="icon-collapsible-button" width="16" height="2" viewBox="0 0 16 2" fill="none">
            <path d="M0 1H16" stroke="#141414" />
        </symbol>
       <svg aria-hidden="true" style="position:absolute;width:0;height:0;overflow:hidden" xmlns="http://www.w3.org/2000/svg">
  <defs>
    <symbol id="icon-chevron-left" viewBox="0 0 32 32">
      <path stroke-linejoin="round" stroke-linecap="round" stroke-width="1.333" d="m20 24-8-8 8-8"/>
    </symbol>
    <symbol id="icon-chevron-left-mob" viewBox="0 0 32 32">
      <path stroke-linejoin="round" stroke-linecap="round" stroke-width="1.778" d="m20 24-8-8 8-8"/>
    </symbol>
    <symbol id="icon-chevron-right" viewBox="0 0 32 32">
      <path stroke-linejoin="round" stroke-linecap="round" stroke-width="1.333" d="m12 24 8-8-8-8"/>
    </symbol>
    <symbol id="icon-chevron-right-mob" viewBox="0 0 32 32">
      <path stroke-linejoin="round" stroke-linecap="round" stroke-width="1.778" d="m12 24 8-8-8-8"/>
    </symbol>
    <symbol id="icon-facebook" viewBox="0 0 32 32">
      <path d="M19.52 4.64h.96v3.6h-1.2c-.48 0-.96 0-1.2.24s-.24.48-.24 1.04v1.28h2.64v3.04h-2.64v13.2h-4.08V13.76H11.6v-3.04h2.16V9.68c0-1.76.24-3.04.72-3.6.72-1.04 2.16-1.52 4.32-1.52.24.08.48.08.72.08z"/>
    </symbol>
    <symbol id="icon-facebook-mob" viewBox="0 0 32 32">
      <path d="M19.52 4.64h.96v3.6h-1.2c-.48 0-.96 0-1.2.24s-.24.48-.24 1.04v1.28h2.64v3.04h-2.64v13.2h-4.08V13.76H11.6v-3.04h2.16V9.68c0-1.76.24-3.04.72-3.6.72-1.04 2.16-1.52 4.32-1.52.24.08.48.08.72.08z"/>
    </symbol>
    <symbol id="icon-heart" viewBox="0 0 32 32">
      <path stroke-linejoin="round" stroke-linecap="round" stroke-width="2.667" d="M27.787 6.147a7.326 7.326 0 0 0-10.373 0L16.001 7.56l-1.413-1.413a7.333 7.333 0 0 0-10.374 0 7.333 7.333 0 0 0 0 10.374l11.787 11.787 11.787-11.787a7.326 7.326 0 0 0 0-10.373z"/>
    </symbol>
    <symbol id="icon-instagram" viewBox="0 0 32 32">
      <path d="M28.718 10.756a9.264 9.264 0 0 0-.596-3.145 6.547 6.547 0 0 0-3.743-3.737 9.42 9.42 0 0 0-3.108-.596c-1.368-.061-1.801-.078-5.273-.078s-3.916 0-5.274.078a9.413 9.413 0 0 0-3.106.596 6.541 6.541 0 0 0-3.743 3.737 9.288 9.288 0 0 0-.596 3.101c-.061 1.367-.08 1.8-.08 5.265s0 3.909.08 5.265a9.335 9.335 0 0 0 .596 3.104 6.548 6.548 0 0 0 3.744 3.735 9.37 9.37 0 0 0 3.106.639c1.369.061 1.803.079 5.274.079s3.916 0 5.274-.079a9.362 9.362 0 0 0 3.108-.595 6.555 6.555 0 0 0 3.743-3.737 9.35 9.35 0 0 0 .596-3.104c.061-1.365.08-1.798.08-5.265-.003-3.466-.003-3.906-.082-5.264zM15.99 22.531c-3.631 0-6.572-2.936-6.572-6.561s2.941-6.561 6.572-6.561c3.628 0 6.572 2.936 6.572 6.561s-2.944 6.561-6.572 6.561zm6.834-11.835a1.53 1.53 0 1 1 0-3.06 1.53 1.53 0 1 1 0 3.06z"/>
      <path d="M15.992 19.976a4.004 4.004 0 1 0 0-8.009 4.004 4.004 0 0 0 0 8.009z"/>
    </symbol>
    <symbol id="icon-instagram-mob" viewBox="0 0 32 32">
      <path d="M28.717 10.756a9.264 9.264 0 0 0-.596-3.145 6.547 6.547 0 0 0-3.743-3.737 9.42 9.42 0 0 0-3.108-.596c-1.367-.061-1.801-.078-5.273-.078s-3.916 0-5.274.078a9.418 9.418 0 0 0-3.106.596 6.541 6.541 0 0 0-3.743 3.737 9.288 9.288 0 0 0-.596 3.101c-.061 1.367-.08 1.8-.08 5.265s0 3.909.08 5.265a9.335 9.335 0 0 0 .596 3.104 6.548 6.548 0 0 0 3.744 3.735 9.37 9.37 0 0 0 3.106.639c1.369.061 1.803.079 5.274.079s3.917 0 5.274-.079a9.362 9.362 0 0 0 3.108-.595 6.555 6.555 0 0 0 3.743-3.737 9.346 9.346 0 0 0 .596-3.104c.061-1.365.08-1.798.08-5.265-.003-3.466-.003-3.906-.082-5.264zM15.99 22.531c-3.631 0-6.572-2.936-6.572-6.561s2.941-6.561 6.572-6.561c3.628 0 6.572 2.936 6.572 6.561s-2.944 6.561-6.572 6.561zm6.833-11.835a1.53 1.53 0 1 1 0-3.06 1.53 1.53 0 1 1 0 3.06z"/>
      <path d="M15.992 19.976a4.004 4.004 0 1 0 0-8.009 4.004 4.004 0 0 0 0 8.009z"/>
    </symbol>
    <symbol id="icon-menu-mob" viewBox="0 0 32 32">
      <path d="M2.667 7.993c0-.733.595-1.327 1.327-1.327h10.68a1.326 1.326 0 0 1 0 2.654H3.994a1.326 1.326 0 0 1-1.327-1.327zm0 8.007c0-.733.595-1.327 1.327-1.327h24.013a1.326 1.326 0 0 1 0 2.654H3.994A1.326 1.326 0 0 1 2.667 16zm1.326 6.68a1.326 1.326 0 0 0 0 2.654h16.013a1.326 1.326 0 0 0 0-2.654H3.993z"/>
    </symbol>
    <symbol id="icon-x" viewBox="0 0 32 32">
      <path stroke-linejoin="round" stroke-linecap="round" stroke-width="1.733" d="M24 8 8 24M8 8l16 16"/>
    </symbol>
    <symbol id="icon-x-mob" viewBox="0 0 32 32">
      <path stroke-linejoin="round" stroke-linecap="round" stroke-width="2.08" d="M24 8 8 24M8 8l16 16"/>
    </symbol>
    <symbol id="icon-youtube" viewBox="0 0 32 32">
      <path d="M24.24 6c-1.36-.08-4.16-.16-8.4-.16h-.56c-4.08 0-6.8.08-8.16.24-1.84.16-3.12.64-3.84 1.28-.64.56-1.12 1.6-1.28 2.96-.08.88-.16 2.72-.16 5.52v.4c0 2.64.08 4.48.24 5.36.24 1.28.64 2.24 1.44 2.8.8.64 2.16 1.04 4.08 1.2 1.36.08 4.16.16 8.4.16h.56c4.08 0 6.8-.08 8.16-.24 1.84-.16 3.12-.64 3.84-1.28.64-.56 1.12-1.6 1.28-2.96.08-.88.16-2.72.16-5.52v-.4c0-2.64-.08-4.48-.24-5.36-.24-1.28-.64-2.24-1.44-2.8-.8-.64-2.16-1.04-4.08-1.2zm-3.12 9.84-8.8 5.28V10.56l8.8 5.28z"/>
    </symbol>
    <symbol id="icon-youtube-mob" viewBox="0 0 32 32">
      <path d="M24.24 6c-1.36-.08-4.16-.16-8.4-.16h-.56c-4.08 0-6.8.08-8.16.24-1.84.16-3.12.64-3.84 1.28-.64.56-1.12 1.6-1.28 2.96-.08.88-.16 2.72-.16 5.52v.4c0 2.64.08 4.48.24 5.36.24 1.28.64 2.24 1.44 2.8.8.64 2.16 1.04 4.08 1.2 1.36.08 4.16.16 8.4.16h.56c4.08 0 6.8-.08 8.16-.24 1.84-.16 3.12-.64 3.84-1.28.64-.56 1.12-1.6 1.28-2.96.08-.88.16-2.72.16-5.52v-.4c0-2.64-.08-4.48-.24-5.36-.24-1.28-.64-2.24-1.44-2.8-.8-.64-2.16-1.04-4.08-1.2zm-3.12 9.84-8.8 5.28V10.56l8.8 5.28z"/>
    </symbol>
    <symbol id="icon-logo-foot" viewBox="0 0 32 32">
      <path style="fill:var(--color1, #000)" d="M28.129 18.564 21.381 3.107l-1.471-1.02-1.725-.549L15.851.91l-2.74 1.177-1.826 1.02 6.9 15.457h9.944zM3.912 13.395l6.748 15.493 1.471 1.022 1.725.551 2.334.629 2.74-1.18 1.826-1.022-6.9-15.493H3.912z"/>
      <path fill="#fff" style="fill:var(--color2, #fff)" d="M10.924 3.309.448 18.451l10.476.112 7.573-15.255c.532-1.561 2.195-.65 2.961 0-3.271-5.993-8.385-2.497-10.533 0zM21.076 28.691l10.476-15.142-10.476-.112-7.573 15.255c-.532 1.561-2.195.65-2.961 0 3.271 5.993 8.385 2.497 10.533 0z"/>
    </symbol>
  <symbol id="icon-logo-foot-mob" viewBox="0 0 32 32">
        <path fill="#000" style="fill: var(--color1, #000)" d="M28.129 18.564l-6.748-15.457-1.471-1.020-1.725-0.549-2.334-0.628-2.74 1.177-1.826 1.020 6.9 15.457h9.944z"></path>
        <path fill="#000" style="fill: var(--color1, #000)" d="M3.914 13.394l6.748 15.493 1.471 1.022 1.725 0.551 2.334 0.629 2.74-1.18 1.826-1.022-6.9-15.493h-9.944z"></path>
        <path fill="#fff" style="fill: var(--color2, #fff)" d="M10.924 3.309l-10.476 15.142 10.476 0.112 7.573-15.254c0.532-1.561 2.195-0.65 2.961 0-3.271-5.993-8.385-2.497-10.533 0z"></path>
        <path fill="#fff" style="fill: var(--color2, #fff)" d="M21.076 28.691l10.476-15.142-10.476-0.112-7.573 15.254c-0.532 1.561-2.195 0.65-2.961 0 3.271 5.993 8.385 2.497 10.533 0z"></path>
</symbol>
    <symbol id="icon-logo-hed" viewBox="0 0 32 32">
      <path style="fill:var(--color1, #000)" d="M28.129 18.563 21.381 3.106l-1.471-1.02-1.725-.549-2.334-.628-2.74 1.177-1.826 1.02 6.9 15.457h9.944zM3.912 13.395l6.748 15.493 1.471 1.022 1.725.551 2.334.629 2.74-1.18 1.827-1.022-6.9-15.493H3.913z"/>
      <path fill="#fff" style="fill:var(--color2, #fff)" d="M10.924 3.309.448 18.451l10.476.112 7.573-15.255c.532-1.561 2.195-.65 2.96 0-3.271-5.993-8.385-2.497-10.533 0zM21.076 28.691l10.476-15.142-10.476-.112-7.573 15.255c-.532 1.561-2.195.65-2.961 0 3.271 5.993 8.385 2.497 10.533 0z"/>
    </symbol>
    <symbol id="icon-logo-hed-mob" viewBox="0 0 32 32">
      <path style="fill:var(--color1, #000)" d="M28.13 18.563 21.382 3.106l-1.471-1.02-1.725-.549-2.334-.628-2.74 1.177-1.826 1.02 6.9 15.457h9.944zM3.912 13.395l6.748 15.493 1.471 1.022 1.725.55 2.334.629 2.74-1.18 1.826-1.022-6.9-15.493H3.912z"/>
      <path fill="#fff" style="fill:var(--color2, #fff)" d="M10.924 3.309.448 18.451l10.476.112 7.573-15.255c.532-1.561 2.195-.65 2.961 0-3.271-5.993-8.385-2.497-10.533 0zM21.076 28.691l10.476-15.142-10.476-.112-7.573 15.255c-.532 1.56-2.195.65-2.961 0 3.271 5.992 8.385 2.497 10.533 0z"/>
    </symbol>
    <symbol id="icon-youtube" viewBox="0 0 40 40">
<path fill="#fff" style="fill: var(--color1, #fff)" opacity="0.8" d="M30.3 7.5c-1.7-0.1-5.2-0.2-10.5-0.2h-0.7c-5.1 0-8.5 0.1-10.2 0.3-2.3 0.2-3.9 0.8-4.8 1.6-0.8 0.7-1.4 2-1.6 3.7-0.1 1.1-0.2 3.4-0.2 6.9v0.5c0 3.3 0.1 5.6 0.3 6.7 0.3 1.6 0.8 2.8 1.8 3.5 1 0.8 2.7 1.3 5.1 1.5 1.7 0.1 5.2 0.2 10.5 0.2h0.7c5.1 0 8.5-0.1 10.2-0.3 2.3-0.2 3.9-0.8 4.8-1.6 0.8-0.7 1.4-2 1.6-3.7 0.1-1.1 0.2-3.4 0.2-6.9v-0.5c0-3.3-0.1-5.6-0.3-6.7-0.3-1.6-0.8-2.8-1.8-3.5-1-0.8-2.7-1.3-5.1-1.5zM26.4 19.8l-11 6.6v-13.2l11 6.6z"></path>
</symbol>
<symbol id="icon-instagram" viewBox="0 0 39 40">
<path fill="#fff" style="fill: var(--color1, #fff)" opacity="0.8" d="M34.659 13.414c-0.019-1.297-0.259-2.583-0.719-3.796-0.805-2.071-2.443-3.708-4.517-4.51-1.199-0.45-2.467-0.692-3.75-0.719-1.65-0.074-2.174-0.094-6.364-0.094s-4.727 0-6.365 0.094c-1.282 0.027-2.55 0.269-3.749 0.719-2.074 0.802-3.714 2.439-4.517 4.51-0.451 1.197-0.695 2.463-0.719 3.743-0.074 1.649-0.096 2.172-0.096 6.355s0 4.717 0.096 6.355c0.026 1.281 0.268 2.545 0.719 3.746 0.805 2.069 2.443 3.707 4.519 4.508 1.194 0.466 2.462 0.73 3.749 0.771 1.652 0.074 2.176 0.096 6.365 0.096s4.727 0 6.365-0.096c1.282-0.026 2.55-0.267 3.75-0.718 2.074-0.803 3.713-2.441 4.518-4.51 0.451-1.199 0.693-2.463 0.719-3.746 0.074-1.648 0.096-2.17 0.096-6.355-0.003-4.183-0.003-4.714-0.1-6.353zM19.298 27.626c-4.382 0-7.932-3.544-7.932-7.918s3.55-7.919 7.932-7.919c4.379 0 7.932 3.544 7.932 7.919s-3.553 7.918-7.932 7.918zM27.546 13.342c-1.024 0-1.85-0.826-1.85-1.846s0.825-1.846 1.85-1.846c1.021 0 1.848 0.826 1.848 1.846s-0.827 1.846-1.848 1.846z"></path>
<path fill="#fff" style="fill: var(--color1, #fff)" opacity="0.8" d="M19.301 24.542c2.669 0 4.832-2.163 4.832-4.832s-2.164-4.832-4.832-4.832-4.832 2.164-4.832 4.832c0 2.669 2.164 4.832 4.832 4.832z"></path>
</symbol>
<symbol id="icon-facebook-footer" viewBox="0 0 39 40">
<path fill="#fff" style="fill: var(--color1, #fff)" d="M23.558 6.033c0.29 0 0.579 0 1.159 0v4.345c-0.29 0-0.869 0-1.448 0s-1.159 0-1.448 0.29c-0.29 0.29-0.29 0.579-0.29 1.255 0 0.579 0 0.966 0 1.545h3.186v3.669h-3.186v15.931h-4.924v-16.028h-2.607v-3.669h2.607v-1.255c0-2.124 0.29-3.669 0.869-4.345 0.869-1.255 2.607-1.834 5.214-1.834 0.29 0.097 0.579 0.097 0.869 0.097z"></path>
</symbol>
<symbol id="icon-menu-left" viewBox="0 0 57 40">
<path fill="#fff" style="fill: var(--color1, #fff)" d="M0 2.843c0-1.571 1.274-2.843 2.843-2.843h22.886c0.754 0 1.477 0.3 2.010 0.833s0.833 1.256 0.833 2.010c0 0.754-0.3 1.477-0.833 2.010s-1.256 0.833-2.010 0.833h-22.886c-0.754 0-1.477-0.3-2.010-0.833s-0.833-1.256-0.833-2.010zM0 20c0-1.571 1.274-2.843 2.843-2.843h51.457c0.754 0 1.477 0.3 2.010 0.833s0.833 1.256 0.833 2.010c0 0.754-0.299 1.477-0.833 2.010s-1.256 0.833-2.010 0.833h-51.457c-0.754 0-1.477-0.3-2.010-0.833s-0.833-1.256-0.833-2.010zM2.843 34.314c-0.754 0-1.477 0.299-2.010 0.833s-0.833 1.256-0.833 2.010c0 0.754 0.3 1.477 0.833 2.010s1.256 0.833 2.010 0.833h34.314c0.754 0 1.477-0.299 2.010-0.833s0.833-1.256 0.833-2.010c0-0.754-0.299-1.477-0.833-2.010s-1.256-0.833-2.010-0.833h-34.314z"></path>
</symbol>

<symbol id="icon-chevron-right" viewBox="0 0 40 40">
<path fill="none" stroke="#fff" style="stroke: var(--color1, #fff)" stroke-linejoin="round" stroke-linecap="round" stroke-miterlimit="4" stroke-width="1.6667" d="M25 30l-10-10 10-10"></path>
</symbol>
<symbol id="icon-chevron-left" viewBox="0 0 40 40">
<path fill="none" stroke="#fff" style="stroke: var(--color1, #fff)" stroke-linejoin="round" stroke-linecap="round" stroke-miterlimit="4" stroke-width="1.6667" d="M15 30l10-10-10-10"></path>
</symbol>
<symbol id="icon-Vector-3" viewBox="0 0 640 40">
<path fill="none" stroke="#fff" style="stroke: var(--color1, #fff)" stroke-linejoin="miter" stroke-linecap="butt" stroke-miterlimit="4" stroke-width="20" d="M0 20h640"></path>
</symbol>
</defs>
</svg>
